<svg width="48" height="48" viewBox="0 0 48 48" fill="none" xmlns="http://www.w3.org/2000/svg">
<g clip-path="url(#clip0_839_4167)">
<g clip-path="url(#clip1_839_4167)">
<mask id="mask0_839_4167" style="mask-type:luminance" maskUnits="userSpaceOnUse" x="0" y="0" width="48" height="48">
<path d="M48 0H0V48H48V0Z" fill="white"/>
</mask>
<g mask="url(#mask0_839_4167)">
<path d="M32.766 19.6875C34.899 23.7832 36.3825 31.8733 35.295 33.2421C32.8065 36.375 20.4334 37.3125 16.0969 34.5292C13.1996 32.6698 13.0157 23.0614 14.5564 20.487M34.3149 22.8161C34.8585 22.6221 35.9104 22.104 36.1547 23.1557C36.399 24.2074 36.3952 24.8618 36.1547 25.9508C36.0236 26.544 35.7165 26.7214 35.3477 26.7214" stroke="black" stroke-width="0.5625" stroke-linecap="round" stroke-linejoin="round"/>
<path d="M13.5307 23.3133C12.1045 22.8654 11.2645 23.6673 11.7757 25.439C12.26 27.1172 13.0977 27.4704 13.5307 27.3755" stroke="black" stroke-width="0.5625" stroke-linecap="round" stroke-linejoin="round"/>
<path d="M21.375 23.3897C22.0316 23.3897 22.8218 24.4562 22.8958 26.1551C23.0164 28.9121 22.1154 29.7847 22.8958 31.212C23.4073 32.1474 26.2258 32.0994 26.9927 30.5494C27.5961 29.3302 26.4435 28.2909 25.7565 26.6599C25.1012 25.1051 24.6862 24.1492 25.3714 23.25" stroke="black" stroke-width="0.5625" stroke-linecap="round" stroke-linejoin="round"/>
<path d="M23.9762 36.699C23.8644 37.449 23.8125 37.7852 23.8125 37.7852M24.4119 36.6643C24.5259 37.2006 24.4457 37.5023 24.6613 37.8662M25.2137 37.7852C25.2137 37.7852 25.0162 37.2463 25.0162 36.6429M25.6494 36.5625C25.7661 37.3136 26.0085 37.6774 26.0085 37.6774" stroke="black" stroke-width="0.5625" stroke-linecap="round" stroke-linejoin="round"/>
<path d="M19.125 34.2717C19.125 34.2717 20.1915 33.7499 20.4581 32.8552M20.6574 33.1818C20.6998 33.3399 19.3551 34.9259 19.3551 34.9259M21.0411 33.1046C20.9383 33.8904 20.0642 35.0403 20.0642 35.0403M20.5534 35.2559C20.5534 35.2559 21.5415 34.3486 21.63 33.3179M22.0442 33.2574C22.0442 33.9136 21.7313 35.3564 21.7313 35.3564M26.9276 32.9469L26.9274 35.2524M21.8878 35.2831C21.8878 35.2831 22.6674 34.3025 22.6674 33.4925M27.5908 34.9211C27.5908 34.9211 27.0223 33.7439 27.0223 32.9336M23.1272 33.4203C23.1831 33.8626 22.5806 35.2415 22.5806 35.2415M28.7848 32.7892C28.8407 33.2315 29.8001 34.3587 29.8001 34.3587M27.5906 33.0089C27.6467 33.4514 28.5015 34.8457 28.5015 34.8457M23.5658 33.3854C23.454 34.1354 23.3308 35.3767 23.3308 35.3767M27.9043 32.8745L29.0987 34.5944M24.0015 33.3507C24.1155 33.887 24.1453 34.9687 24.6932 35.3362M29.3409 32.8599C29.6301 33.3061 30.1746 33.9736 30.8863 34.1493M24.7562 33.1811C24.7562 33.4314 24.4217 34.286 24.9354 35.2683M25.8608 35.3371C25.8608 35.3371 24.9356 34.1872 24.9356 33.1811M25.398 33.1143C25.398 33.8328 26.5549 35.3564 26.5549 35.3564M26.7276 35.246C26.6038 34.8721 26.0046 33.5124 26.0719 32.9096" stroke="black" stroke-width="0.5625" stroke-linecap="round" stroke-linejoin="round"/>
<path d="M13.3219 12.5096C12.4847 15.5169 13.5862 16.8259 13.5862 17.4418C13.5862 18.0577 14.3792 13.8081 14.8007 11.4615L14.2461 18.9816L16.0864 10.8879L15.456 19.8615L17.2708 10.5122C17.0691 14.1052 16.6768 21.0934 16.7209 20.3016C16.7647 19.5096 17.9494 13.3048 18.4993 10.0967L18.0049 20.3016L19.7452 10.5122L19.4882 20.3016L21.1101 10.5122L20.7356 20.7966L22.4955 10.5122L22.2176 20.7966L23.6417 11.0064V20.7966L25.0802 11.6394V20.7966L26.4002 12.1071C26.2536 15.4069 26.3122 21.5445 26.4002 20.7966C26.4881 20.0486 27.2434 15.0945 27.6101 12.5096L27.4588 20.7966L28.8201 13.0419L28.6687 20.7966L29.9199 13.482V20.1836L31.0387 13.8546L30.7999 20.1836L31.9258 14.8039L32.0647 19.8615L32.6407 14.8039L32.8639 18.7882L33.6994 15.5814V18.9816" stroke="#F24E1E" stroke-width="1.125" stroke-linecap="round" stroke-linejoin="round"/>
<path d="M32.8443 19.9959C29.6416 21.8439 16.25 21.7181 14.0803 19.2781C10.7366 15.5186 12.2338 12.0463 14.4163 11.1455C16.5988 10.2448 18.3813 8.5134 25.2275 11.1455C32.0739 13.7775 35.1978 14.6439 34.6104 18.3886C34.0228 22.1332 30.1205 23.2001 25.8886 22.3303C21.6568 21.4605 16.1206 24.2272 14.7033 21.7181C14.5121 21.4151 14.1866 20.6465 14.4163 19.9959" stroke="black" stroke-width="0.5625" stroke-linecap="round" stroke-linejoin="round"/>
<path d="M33.9248 20.1448C34.6763 18.4963 36.8018 14.8824 39.2931 13.6138" stroke="#F24E1E" stroke-width="0.5625" stroke-linecap="round" stroke-linejoin="round"/>
<path d="M35.0609 18.8443C35.852 18.7354 37.6949 18.2293 38.7387 17.0765C40.0435 15.6354 41.3555 14.117 41.0056 12.8353C40.6557 11.5534 38.7023 13.0213 37.7731 12.9352C36.844 12.8492 33.9775 17.6675 34.3203 19.0267" stroke="#F24E1E" stroke-width="0.5625" stroke-linecap="round" stroke-linejoin="round"/>
<path d="M19.9735 28.3075C19.8375 28.2072 19.0107 27.8723 18.5788 27.1525C18.147 26.4331 18.1183 25.7135 18.5788 25.3968C18.8882 25.1841 19.5439 25.5246 19.9735 25.8155M20.142 25.6906C20.4216 25.382 20.9145 25.1221 21.4 25.3968C21.7257 25.5811 21.6878 26.7209 21.4 27.1527C21.1688 27.4994 20.4259 28.079 20.142 28.2642M27.8792 25.547C27.4667 25.1536 26.5437 24.5395 26.1522 25.2305C25.6628 26.0939 27.1978 27.6631 28.0624 28.0216M28.2707 28.126C28.6928 27.8093 29.5776 27.1186 29.7388 26.8881C29.9402 26.6003 30.2569 25.3913 29.7388 24.902C29.2206 24.4126 28.1267 25.1035 28.1267 25.8807" stroke="#F24E1E" stroke-width="0.5625" stroke-linecap="round" stroke-linejoin="round"/>
<path d="M18.1875 22.7384C18.3069 22.4722 18.7382 21.9622 19.5094 22.0501C20.4729 22.1602 20.6657 22.3255 20.886 22.7384M26.8419 22.3523C26.9522 22.0403 27.4147 21.4492 28.3839 21.5813C29.3533 21.7135 29.7058 22.2607 29.7607 22.5175" stroke="black" stroke-width="0.5625" stroke-linecap="round" stroke-linejoin="round"/>
</g>
</g>
</g>
<defs>
<clipPath id="clip0_839_4167">
<rect width="48" height="48" fill="white"/>
</clipPath>
<clipPath id="clip1_839_4167">
<rect width="48" height="48" fill="white"/>
</clipPath>
</defs>
</svg>
