<svg width="207" height="207" viewBox="0 0 317 317" fill="none" xmlns="http://www.w3.org/2000/svg">
<path d="M295.867 101.44C316.472 87.7033 317 67.6267 317 67.6267C296.395 66.57 296.923 45.4367 277.903 26.4167C252.543 1.05667 220.315 16.9067 220.315 16.9067C221.9 8.98167 217.673 4.22667 220.843 0C177.52 0 158.5 18.4917 158.5 18.4917C158.5 18.4917 139.48 0 96.1567 0C98.7983 4.22667 95.1 8.98167 96.685 16.9067C96.685 16.9067 63.9283 0.528333 39.0967 26.4167C20.0767 45.965 20.605 67.0983 0 67.6267C0 67.6267 0.528333 87.7033 21.1333 101.44C21.1333 101.44 -0.528334 122.045 3.17 165.368C3.17 165.368 11.6233 154.802 32.2283 151.103C8.45334 171.18 22.19 200.767 4.755 220.843C4.755 220.843 29.0583 226.127 39.0967 219.258C35.3983 250.43 54.4183 262.582 54.4183 277.903C76.08 271.035 79.25 249.373 79.25 249.373C79.25 288.998 92.9867 287.413 92.9867 308.547C92.9867 308.547 116.762 304.848 126.8 284.772C130.498 303.263 149.518 305.377 159.557 317C169.595 305.377 188.087 303.263 192.313 284.772C202.352 304.32 226.127 308.547 226.127 308.547C226.127 287.413 239.863 288.998 239.863 249.373C239.863 249.373 243.033 270.507 264.695 277.903C264.695 262.582 283.715 250.43 280.017 219.258C290.055 226.127 314.358 220.843 314.358 220.843C296.923 200.238 310.66 170.652 286.885 151.103C306.962 155.33 315.943 165.368 315.943 165.368C317.528 121.517 295.867 101.44 295.867 101.44Z" fill="#8F6B51"/>
<path d="M283.714 26.9451C269.977 15.8501 230.352 28.0018 215.03 47.0218C233.522 53.3618 255.184 69.2118 271.562 107.252C305.904 90.3451 297.979 38.5684 283.714 26.9451Z" fill="#E5BC5E"/>
<path d="M264.168 92.4583C284.244 84.0049 280.018 55.4749 272.093 49.1349C265.224 43.3233 245.148 49.1349 236.694 58.6449C246.204 66.0416 255.714 77.1366 264.168 92.4583Z" fill="#3E4347"/>
<path d="M101.968 47.0218C86.646 28.0018 47.021 15.8501 33.2843 26.9451C19.0193 38.5684 10.566 90.3451 45.436 107.252C62.3427 69.7401 83.476 53.3618 101.968 47.0218Z" fill="#E5BC5E"/>
<path d="M52.8349 92.4583C61.2882 77.1366 70.7982 66.0416 80.3082 58.6449C71.3266 49.1349 51.7782 43.3233 44.9099 49.1349C36.9849 55.4749 32.7582 84.0049 52.8349 92.4583Z" fill="#3E4347"/>
<path d="M247.787 141.065C250.429 129.441 239.334 102.496 229.296 97.2132C227.711 96.1565 221.371 97.2132 221.371 97.2132C219.257 94.5715 209.219 65.5132 182.802 60.2298C166.952 57.5882 158.499 70.7965 158.499 70.7965C158.499 70.7965 150.046 57.0598 134.196 60.2298C107.779 64.9848 97.2125 94.5715 95.6275 97.2132C95.6275 97.2132 89.2875 96.1565 87.7025 97.2132C77.6642 103.025 67.0975 129.441 69.2108 141.065C72.3808 155.33 97.2125 169.595 97.2125 193.898H220.842C220.314 169.595 245.146 155.33 247.787 141.065Z" fill="#E5BC5E"/>
<path d="M158.499 76.0808L151.631 89.8175L158.499 132.612L165.368 89.8175L158.499 76.0808Z" fill="white"/>
<path d="M216.087 126.8C216.087 135.782 210.275 142.65 203.407 142.65C196.538 142.65 190.727 135.782 190.727 126.8C190.727 117.818 196.538 110.95 203.407 110.95C210.275 110.95 216.087 118.347 216.087 126.8ZM100.91 126.8C100.91 135.782 106.722 142.65 113.59 142.65C120.458 142.65 126.27 135.782 126.27 126.8C126.27 117.818 120.458 110.95 113.59 110.95C106.722 110.95 100.91 118.347 100.91 126.8Z" fill="#3E4347"/>
<path d="M97.7402 210.277C97.7402 244.09 138.422 269.979 138.422 269.979C137.894 263.11 140.007 257.827 140.007 257.827C141.592 267.865 146.347 275.262 146.347 275.262C146.347 266.809 150.574 263.11 150.574 263.11C154.8 274.734 159.027 279.489 159.027 279.489C159.027 279.489 163.254 274.734 167.48 263.11C167.48 263.11 171.707 266.809 171.707 275.262C171.707 275.262 176.462 267.865 178.047 257.827C178.047 257.827 180.16 263.639 179.632 269.979C179.632 269.979 220.314 244.09 220.314 210.277H97.7402Z" fill="white"/>
<path d="M218.202 182.275C216.617 179.105 189.672 157.444 189.672 157.444H127.328C127.328 157.444 100.912 178.577 98.7982 182.275C96.1565 187.559 95.6282 204.465 97.7415 209.749C97.7415 209.749 123.63 248.845 158.5 215.032C193.37 248.845 219.258 209.749 219.258 209.749C221.372 204.465 220.843 187.559 218.202 182.275Z" fill="#FFDA87"/>
<path d="M163.783 215.031V183.86L183.86 175.406C187.03 173.821 189.671 170.123 189.671 166.953V157.971H127.328V166.953C127.328 170.123 129.97 173.821 133.14 175.406L153.216 183.86V215.031C126.8 239.335 100.911 212.918 98.2695 210.276C101.44 215.031 126.8 257.298 159.028 224.013C190.728 257.298 216.616 214.503 219.786 210.276C216.616 213.446 190.2 239.863 163.783 215.031Z" fill="#3E4347"/>
<path d="M189.67 157.972C181.217 142.65 180.16 141.593 172.764 137.895C166.424 135.253 151.102 135.253 144.762 137.895C137.365 141.065 136.309 142.65 127.855 157.972H189.67Z" fill="#FFDA87"/>
<path d="M158.501 149.518C138.424 149.518 127.329 157.971 127.329 157.971C127.329 157.971 128.386 157.443 139.481 165.368C146.349 170.651 152.161 184.388 158.501 184.388C164.841 184.388 170.652 170.651 177.521 165.368C188.616 156.914 189.672 157.971 189.672 157.971C189.672 157.971 178.577 149.518 158.501 149.518Z" fill="#AF7751"/>
</svg>
