<svg width="48" height="48" viewBox="0 0 48 48" fill="none" xmlns="http://www.w3.org/2000/svg">
<g clip-path="url(#clip0_1020_4187)">
<mask id="mask0_1020_4187" style="mask-type:luminance" maskUnits="userSpaceOnUse" x="0" y="0" width="48" height="48">
<path d="M48 0H0V48H48V0Z" fill="white"/>
</mask>
<g mask="url(#mask0_1020_4187)">
<path d="M34.2821 21.2134C34.7155 21.1449 35.1971 21.1444 35.5431 21.7457C35.8888 22.3472 35.5695 23.8183 35.1126 24.5801C34.7252 25.2255 34.3305 25.3652 34.1059 25.4085M13.8636 21.3109C13.0686 20.9471 11.7913 21.5421 12.3064 24.0482C12.5085 25.0318 13.1665 25.623 13.6339 25.5561" stroke="black" stroke-width="0.5625" stroke-linecap="round" stroke-linejoin="round"/>
<path d="M15.1718 17.7026C12.4341 23.1437 14.047 33.2049 17.1668 39.1271C20.2868 45.0493 23.2526 46.0288 24.7568 45.8194C28.2205 45.3371 31.8476 39.0291 33.4328 28.5189C34.4951 21.4746 34.4798 18.3621 33.2048 16.5" stroke="black" stroke-width="0.5625" stroke-linecap="round" stroke-linejoin="round"/>
<path d="M22.3125 27.3272C22.9691 27.3272 23.7593 28.3937 23.8333 30.0926C23.9539 32.8496 23.0529 33.7222 23.8333 35.1495C24.3448 36.0849 27.1633 36.0369 27.9302 34.4869C28.5336 33.2677 27.381 32.2284 26.694 30.5974C26.0387 29.0426 25.6237 28.0867 26.3089 27.1875" stroke="black" stroke-width="0.5625" stroke-linecap="round" stroke-linejoin="round"/>
<path d="M20.7392 41.2084C21.6219 41.9734 23.2629 42.4223 24.9529 42.2336C26.8706 42.0195 28.0071 41.0025 28.4882 40.2274M20.0625 41.727C20.3588 41.5378 20.9644 41.0254 21.0157 40.4876M28.1503 39.75C28.3389 40.0466 28.8506 40.6528 29.3882 40.7049" stroke="black" stroke-width="0.5625" stroke-linecap="round" stroke-linejoin="round"/>
<path d="M15.3563 15.3821L16.7871 17.1212L15.3564 14.0571L17.7004 17.3972L15.6135 12.7598L19.2529 17.6734L17.9743 14.0571C19.05 15.6122 21.1584 18.5897 20.988 18.0598C20.8176 17.5298 19.9226 15.6489 19.4964 14.7748L22.7535 18.3358L21.5663 14.9957L24.1538 18.0598L23.6816 15.6167L25.554 17.6734L25.1278 14.7748L27.0152 17.6734L26.0715 14.2778L28.5373 17.3972L27.6849 13.8086L29.9376 17.1212L28.933 13.4499L30.9726 16.8728L29.9376 13.1738L32.0074 16.5414L30.9726 12.7596L33.0424 16.1274L32.0074 12.4009" stroke="black" stroke-width="1.125" stroke-linecap="round" stroke-linejoin="round"/>
<path d="M10.128 9.29756C14.4174 7.19831 23.4347 3 25.1869 3C26.9392 3 34.8613 5.92069 38.6032 7.38094L23.2702 15.5949L10.8433 8.94937" stroke="black" stroke-width="0.5625" stroke-linecap="round" stroke-linejoin="round"/>
<path d="M36.7101 7.71101L35.9233 6.73301L35.3334 8.79269L34.7434 6.21494L33.6617 9.67769L33.2683 5.61045L32.0392 10.7592C32.1866 9.41726 32.3932 6.42701 32.0392 5.20357C31.5967 3.67394 31.3884 10.9853 30.9459 9.67769C30.5919 8.63144 30.3675 5.5377 30.2201 4.56438V11.3091L28.8926 4.31538V12.0374L27.8601 3.97413L27.2707 12.604L26.2376 3.62988L25.5 14.1584L24.7626 3.63026L24.3141 14.7895L23.1399 3.97432L22.6807 14.7893L21.8227 4.31538L20.8363 14.1584L20.3383 4.83344L19.4323 13.2623L18.7798 5.61045L18.1116 12.6042L17.7407 6.21494L16.7332 12.0374L16.4049 6.73301C16.2069 8.20076 15.7369 11.1709 15.4401 11.3091C15.0688 11.4816 15.1086 9.10263 15.1828 7.54863C15.2422 6.30513 14.6237 8.63238 14.1784 10.1003L13.6016 8.05488L13.1591 9.67751L12.3726 8.79251" stroke="black" stroke-width="1.125" stroke-linecap="round" stroke-linejoin="round"/>
<path d="M14.8333 11.3386V16.4998C14.8333 17.106 21.3128 18.7726 22.7852 18.7726C23.9634 18.7726 30.3446 17.2575 33.3879 16.4998V10.4495M10.458 9.57033L9.375 17.3486M10.5564 9.44208V16.9546M10.6819 9.44189L11.3441 16.5607" stroke="black" stroke-width="0.5625" stroke-linecap="round" stroke-linejoin="round"/>
<path d="M24.5741 36.9185C21.8156 37.3126 15.9431 38.429 13.6875 39.0839M36.9034 36.4546C34.1447 36.8487 28.1859 36.622 25.9326 36.7638" stroke="black" stroke-width="0.5625" stroke-linecap="round" stroke-linejoin="round"/>
<path d="M24.4313 36.987C21.6722 37.3811 17.3175 39.1774 14.7799 39.4594M36.2723 37.1631C33.5138 37.557 28.6752 36.8668 26.1773 36.8668M24.5742 36.789C21.8157 37.1831 16.0813 37.8544 13.7826 38.2013M37.1222 35.4375C34.3635 35.8316 28.2186 36.2623 25.9197 36.6094" stroke="black" stroke-width="0.5625" stroke-linecap="round" stroke-linejoin="round"/>
<path d="M20.1268 23.2275C19.6802 23.2511 18.7495 23.4956 18.5991 24.285C18.411 25.2722 18.9987 25.6718 19.2103 25.7657C19.4217 25.8598 20.7613 26.1182 20.9258 25.2017C21.0902 24.2852 20.6438 23.6505 20.3852 23.533C20.1268 23.4156 19.3277 23.8386 19.2102 24.2852C19.0926 24.7316 18.7167 24.9197 19.2102 25.2017C19.7037 25.4837 20.0562 25.8598 20.3852 25.2956C20.7143 24.7316 20.6438 24.0501 20.3852 24.0032C20.1268 23.9561 19.5392 24.1206 19.5392 24.4731C19.5392 24.8256 19.6097 25.3898 19.7976 25.2017C19.9482 25.0513 20.0798 24.6533 20.1267 24.4731M29.3487 22.8662C28.902 22.8898 27.9715 23.1343 27.8211 23.9237C27.633 24.9109 28.2205 25.3105 28.4322 25.4044C28.6437 25.4985 29.9832 25.7569 30.1478 24.8404C30.3122 23.9239 29.8656 23.2892 29.6072 23.1716C29.3487 23.0543 28.5497 23.4773 28.4322 23.9239C28.3146 24.3703 27.9387 24.5584 28.4322 24.8404C28.9257 25.1224 29.2782 25.4985 29.6072 24.9343C29.9361 24.3703 29.8656 23.6888 29.6072 23.6419C29.3487 23.5948 28.761 23.7593 28.761 24.1118C28.761 24.4643 28.8315 25.0285 29.0198 24.8404C29.17 24.69 29.3016 24.292 29.3487 24.1118" stroke="black" stroke-width="0.5625" stroke-linecap="round" stroke-linejoin="round"/>
<path d="M19.5313 24.3034C19.4582 24.3181 19.3046 24.3368 19.3558 24.4645C19.407 24.592 19.6046 24.5637 19.6521 24.4645C19.6997 24.3653 19.6046 24.1426 19.6046 24.1426M28.7531 23.9421C28.68 23.9568 28.5266 23.9755 28.5776 24.1032C28.6288 24.2307 28.8265 24.2024 28.8739 24.1032C28.9215 24.004 28.8264 23.7812 28.8264 23.7812" stroke="#373F41" stroke-width="0.5625" stroke-linecap="round" stroke-linejoin="round"/>
<path d="M18.6572 21.8972C18.858 21.6609 19.3662 21.2591 19.7916 21.5428M28.1127 21.1815C28.3135 20.9451 28.9144 20.934 29.0138 21.1815" stroke="black" stroke-width="0.5625" stroke-linecap="round" stroke-linejoin="round"/>
</g>
</g>
<defs>
<clipPath id="clip0_1020_4187">
<rect width="48" height="48" fill="white"/>
</clipPath>
</defs>
</svg>
