<svg width="48" height="48" viewBox="0 0 48 48" fill="none" xmlns="http://www.w3.org/2000/svg">
<mask id="mask0_1020_4297" style="mask-type:luminance" maskUnits="userSpaceOnUse" x="0" y="0" width="48" height="48">
<path d="M48 0H0V48H48V0Z" fill="white"/>
</mask>
<g mask="url(#mask0_1020_4297)">
<path d="M11.5597 16.8617C10.4182 18.5121 9.54142 23.3151 11.4547 26.4242C13.6269 30.6492 18.0834 31.8533 22.6351 31.4265C27.1869 30.9998 30.4276 27.2612 31.2048 24.2918C31.982 21.3222 31.2048 17.665 29.6332 15.751" stroke="black" stroke-width="0.5625" stroke-linecap="round" stroke-linejoin="round"/>
<path d="M30.7912 17.5094C31.2766 17.293 31.8331 17.191 32.1789 17.7923C32.5248 18.3936 32.7749 19.1659 32.4888 20.3522C32.3124 21.084 31.874 21.255 31.5052 21.255M10.4992 18.6816C9.70417 18.3177 8.78729 19.1035 9.04398 21.1877C9.22416 22.6514 9.78892 22.9791 10.2565 22.9124" stroke="black" stroke-width="0.5625" stroke-linecap="round" stroke-linejoin="round"/>
<path d="M20.5779 21.751C21.2915 22.1505 22.6179 23.973 22.4808 25.0007C22.3916 25.6694 20.8903 25.4545 20.0624 25.312" stroke="black" stroke-width="0.5625" stroke-linecap="round" stroke-linejoin="round"/>
<path d="M17.0397 32.1895C17.4444 33.8967 17.0229 35.3673 17.2242 36.0125M24.6164 31.0308C24.6164 32.4575 24.4766 33.7293 24.4766 34.3672M22.4514 36.4964C22.4514 36.9693 22.6406 38.317 22.6406 38.8135M22.0106 38.9862C21.7591 38.3825 21.3969 36.3374 21.2351 35.9347M17.9467 30.7192C18.1342 31.427 17.6111 35.4254 19.0878 38.7475M16.6019 37.0739C16.3143 36.0046 16.1737 33.9149 16.3141 32.8139M23.8162 38.2349C23.5286 37.1656 23.5537 36.2365 23.6943 35.1355M23.0677 36.3024C22.7801 35.2329 23.3343 33.533 23.4749 32.432M15.155 31.6788C14.4669 32.593 15.1556 34.835 15.1556 36.0099M26.4554 30.9093C26.8452 31.559 27.1914 33.2049 27.1914 34.8074M25.8421 32.3095C25.8421 33.6547 25.2027 35.36 25.2027 36.1154M19.6934 36.4717C19.3747 36.0027 18.4944 32.798 18.8769 31.5828M20.5996 35.8012C20.5996 35.2437 20.2347 34.633 20.0418 33.6048M20.6516 38.5651C20.5139 37.0741 20.3624 37.232 20.3624 35.9245M17.0306 38.9298C16.5307 37.58 15.8337 37.3197 15.5808 36.3802M27.9792 36.8827C27.9792 36.3363 28.1722 35.3401 28.1722 34.9867M18.0847 40.0981C17.9471 38.6071 17.6257 37.9419 17.6257 36.6342M22.082 36.6256C21.9444 35.1346 21.623 34.4694 21.623 33.1617M26.7581 37.969C26.6206 36.4779 26.4104 36.2515 26.4104 34.9439M20.2147 40.4639C19.6263 39.0044 19.9019 38.5872 19.4964 37.1448M21.2437 41.4264C21.2437 40.8307 21.0215 39.8386 20.7106 39.0899M22.0974 41.3934C22.2046 41.0607 22.0974 40.3278 22.0974 39.8086M16.7133 31.8024C16.8206 31.4699 16.7135 30.9595 16.7133 30.4404M15.7501 31.1247C15.5277 30.6605 15.9965 30.3507 15.9965 29.8315M19.7746 32.5424V30.983M23.5087 31.6355C23.5087 31.2384 23.5087 31.0754 23.5083 30.5562M25.5609 31.4784C25.5609 31.081 25.5609 30.644 25.2843 30.2054M28.0758 33.0646C28.1829 32.732 28.076 32.2216 28.0758 31.7024M27.5246 31.0321C27.4576 30.6892 27.1173 30.2943 26.8661 29.8398M23.0219 41.1348C23.1292 40.8022 23.207 40.1035 23.207 39.3813M20.9677 33.4814C20.7684 33.0545 20.861 32.2424 20.5501 31.4937M22.5172 33.0599C22.5172 32.609 22.2102 32.0887 22.2102 31.2376M25.8329 38.7475C25.9332 38.3079 25.7497 37.7324 25.9389 36.9025M24.1811 40.1829C24.3941 39.7852 24.3691 39.1818 24.7709 38.4316M19.4191 41.3268C19.3137 40.8429 19.0672 39.9382 18.7561 39.1893M24.9794 38.203C25.0865 37.8706 24.7571 36.6155 24.446 35.8666" stroke="black" stroke-width="0.5625" stroke-linecap="round" stroke-linejoin="round"/>
<path d="M21.5684 28.8599C20.2091 28.8599 18.9408 28.6551 18.3749 28.501C18.5789 28.986 19.5787 30.0497 21.5684 30.0497C23.8068 30.0497 24.6556 29.0215 24.9858 28.501C23.8801 28.8428 22.9278 28.8599 21.5684 28.8599Z" stroke="black" stroke-width="0.5625" stroke-linecap="round" stroke-linejoin="round"/>
<path d="M10.3212 8.76059C9.48401 11.7679 10.5856 13.0768 10.5856 13.6928C10.5856 14.3087 11.3785 10.059 11.8 7.71247L11.2454 15.2325L13.0857 7.13891L12.4553 16.1125L14.2701 6.76316C14.0684 10.3562 13.6761 17.3443 13.7202 16.5525C13.7641 15.7605 14.9487 9.55578 15.4986 6.34766L15.0042 16.5525L16.7446 6.76316L16.4875 16.5525L18.1094 6.76316L17.7349 17.0475L19.4948 6.76316L19.2169 17.0475L20.641 7.25741V17.0475L22.0795 7.89041V17.0475L23.3995 8.35803C23.2529 11.6578 23.3116 17.7955 23.3995 17.0475C23.4874 16.2996 24.2427 11.3455 24.6094 8.76059L24.4581 17.0475L25.8194 9.29291L25.6681 17.0475L26.9193 9.73297V16.4346L28.0381 10.1055L27.7992 16.4346L28.9251 11.0548L29.0641 16.1125L29.6401 11.0548L29.8632 15.0392L30.6987 11.8324V15.2325" stroke="#0FA958" stroke-width="1.125" stroke-linecap="round" stroke-linejoin="round"/>
<path d="M29.8439 16.2471C26.6412 18.0951 13.2496 17.9693 11.0798 15.5294C7.73614 11.7698 9.23333 8.29749 11.4158 7.39674C13.5983 6.49599 15.3809 4.76462 22.2271 7.39674C29.0734 10.0287 32.1974 10.8951 31.6099 14.6399C31.0223 18.3844 27.1201 19.4513 22.8882 18.5815C18.6563 17.7117 13.1202 20.4784 11.7029 17.9693C11.5116 17.6663 11.1861 16.8977 11.4158 16.2471" stroke="black" stroke-width="0.5625" stroke-linecap="round" stroke-linejoin="round"/>
<path d="M30.9244 16.3962C31.6759 14.7477 33.8014 11.1339 36.2928 9.86523" stroke="#0FA958" stroke-width="0.5625" stroke-linecap="round" stroke-linejoin="round"/>
<path d="M32.0601 15.0953C32.8512 14.9863 34.6941 14.4803 35.7379 13.3275C37.0427 11.8864 38.3547 10.368 38.0048 9.08627C37.6549 7.80433 35.7016 9.27227 34.7723 9.18621C33.8432 9.10014 30.9767 13.9185 31.3195 15.2777" stroke="#0FA958" stroke-width="0.5625" stroke-linecap="round" stroke-linejoin="round"/>
<path d="M21.1991 28.6694C18.4406 29.0636 12.5681 30.1799 10.3124 30.8349M33.5283 28.2056C30.7696 28.5997 24.8109 28.373 22.5575 28.5148" stroke="black" stroke-width="0.5625" stroke-linecap="round" stroke-linejoin="round"/>
<path d="M21.0562 28.738C18.2972 29.1321 13.9425 30.9284 11.4048 31.2104M32.8972 28.914C30.1387 29.308 25.3001 28.6178 22.8022 28.6178M21.1991 28.54C18.4406 28.9341 12.7063 29.6054 10.4075 29.9522M33.7472 27.1885C30.9885 27.5826 24.8435 28.0133 22.5446 28.3604" stroke="black" stroke-width="0.5625" stroke-linecap="round" stroke-linejoin="round"/>
<path d="M16.5085 21.8654C16.1679 21.5365 16.5907 21.0438 16.9629 21.2299C17.4282 21.4626 17.6022 22.0399 17.1952 22.447C16.7881 22.8542 15.8514 22.5936 15.7932 21.6047C15.7351 20.6157 17.0045 19.8848 17.6442 21.0482C18.2842 22.2117 18.0798 23.2615 16.679 23.2615C15.725 23.2615 15.3102 22.6004 15.214 21.9681C15.0209 20.7019 15.6657 19.4059 17.0309 19.7196C17.8715 19.9127 18.8409 20.4614 18.6663 22.2066C18.4919 23.9517 17.554 24.1259 16.3614 23.9215C14.924 23.6751 14.5329 22.3883 14.9986 20.9346M25.0246 21.8654C24.6839 21.5365 25.1067 21.0438 25.4789 21.2299C25.9441 21.4626 26.1183 22.0399 25.7112 22.447C25.3042 22.8542 24.3674 22.5936 24.3093 21.6047C24.2512 20.6157 25.5205 19.8848 26.1603 21.0482C26.8002 22.2117 26.5959 23.2615 25.195 23.2615C24.241 23.2615 23.8263 22.6004 23.7301 21.9681C23.537 20.7019 24.1818 19.4059 25.547 19.7196C26.3875 19.9127 27.3569 20.4614 27.1824 22.2066C27.008 23.9517 26.0701 24.1259 24.8774 23.9215C23.44 23.6751 23.0489 22.3883 23.5147 20.9346M15.8949 18.1664C16.4733 18.5747 17.5522 18.6612 18.1664 18.3539M23.8507 18.3372C24.5281 18.544 25.5796 18.2884 26.0669 17.8047" stroke="black" stroke-width="0.5625" stroke-linecap="round" stroke-linejoin="round"/>
</g>
</svg>
