<svg width="48" height="48" viewBox="0 0 48 48" fill="none" xmlns="http://www.w3.org/2000/svg">
<g clip-path="url(#clip0_1020_4217)">
<g clip-path="url(#clip1_1020_4217)">
<mask id="mask0_1020_4217" style="mask-type:luminance" maskUnits="userSpaceOnUse" x="0" y="0" width="48" height="48">
<path d="M48 0H0V48H48V0Z" fill="white"/>
</mask>
<g mask="url(#mask0_1020_4217)">
<path d="M34.0277 15.5586C34.4473 15.5586 35.7101 15.6996 35.3505 17.7797C35.1926 18.6928 35.0417 19.1908 34.7062 19.8145C34.4224 20.3421 34.0164 20.7784 33.5017 20.5313M12.6127 16.1578C11.8978 16.1578 10.7606 17.1531 11.1369 19.1363C11.5406 21.2646 12.3525 21.4407 12.7779 21.3133" stroke="black" stroke-width="0.5625" stroke-linecap="round" stroke-linejoin="round"/>
<path d="M14.3531 12.9955C13.5787 13.9139 13.2733 13.9139 12.5272 17.8139C11.7813 21.7139 19.7872 34.9386 23.2466 34.9386C25.8671 34.9386 27.779 32.6104 29.5925 29.5879C30.8473 27.4966 34.4681 18.0998 33.974 15.8494C33.4802 13.5994 33.3101 12.7431 32.3002 12.0625" stroke="black" stroke-width="0.5625" stroke-linecap="round" stroke-linejoin="round"/>
<path d="M25.0759 19.375C25.9976 20.1186 27.3146 23.6753 26.1953 24.8087C25.0759 25.9424 24.5681 23.9358 23.6066 23.9358C22.6453 23.9358 21.9128 25.0454 22.0105 23.7366C22.0885 22.6898 22.767 22.7056 22.8971 22.6561" stroke="black" stroke-width="0.5625" stroke-linecap="round" stroke-linejoin="round"/>
<path d="M25.6558 30.5199C24.1399 30.7875 21.8035 30.6889 21.4474 30.9564C20.8166 31.6599 24.4896 31.2124 25.2846 31.1186C26.9505 30.9221 27.4967 30.195 25.6558 30.5199Z" stroke="black" stroke-width="0.5625" stroke-linecap="round" stroke-linejoin="round"/>
<path d="M14.9062 13.1556C11.3438 17.3743 15.9375 31.9993 13.5938 37.9056C12.7894 39.9325 9.75 41.4681 7.3125 40.9993M26.25 5.37435C27.9375 3.7806 30.7688 4.02435 32.7188 5.37435C35.1562 7.06185 37.5938 9.87435 38.625 25.3431C39.6562 40.8119 43.3125 40.8118 44.9062 40.5306" stroke="black" stroke-width="0.5625" stroke-linecap="round" stroke-linejoin="round"/>
<path d="M26.1562 7.53076C25.875 8.28076 25.7812 9.28557 22.0312 9.78076C16.5938 10.4989 12.5625 9.21826 10.9688 15.5933C9.375 21.9683 10.9005 31.9995 9.46875 35.937C8.037 39.8745 5.25 39.9683 3.65625 39.0308" stroke="black" stroke-width="0.5625" stroke-linecap="round" stroke-linejoin="round"/>
<path d="M26.9062 7.43701C26.9062 9.31201 25.5938 10.437 22.875 10.6245C18.9996 10.8919 16.7812 9.40576 13.3125 13.9058C10.8039 17.1602 13.7812 28.062 11.8125 34.437C10.8741 37.4756 7.875 37.9995 7.125 37.5308M25.6875 6.68701C25.0312 7.34326 24.8438 7.84951 21.0938 8.37451C16.4062 9.03076 13.4062 9.12451 11.625 11.562" stroke="black" stroke-width="0.5625" stroke-linecap="round" stroke-linejoin="round"/>
<path d="M25.7812 5.93701C25.3749 6.43707 24.5062 6.83701 21.6562 7.06201C18.0938 7.34326 14.1562 7.90576 12.0938 10.2495" stroke="black" stroke-width="0.5625" stroke-linecap="round" stroke-linejoin="round"/>
<path d="M25.875 4.62446C24.8751 4.06196 21.375 3.40571 17.4375 4.99946C12.8194 6.86883 8.56069 9.87446 7.21875 18.4057C5.90625 26.7495 5.80087 29.937 5.34375 33.5932C5.1915 34.812 4.3125 35.2807 3.46875 35.2807" stroke="black" stroke-width="0.5625" stroke-linecap="round" stroke-linejoin="round"/>
<path d="M25.3125 5.28083C22.125 4.90583 19.875 5.28083 16.5938 6.96833C13.6852 8.46421 10.5 10.8121 9.46875 18.5935C8.4375 26.3748 8.8125 30.781 8.0625 33.5935C7.45087 35.8868 5.8125 36.1248 4.875 36.1248" stroke="black" stroke-width="0.5625" stroke-linecap="round" stroke-linejoin="round"/>
<path d="M3 37.9059C3.87506 38.1871 5.92875 37.9516 6.46875 34.5309C7.3125 29.1871 7.52213 24.4632 7.78125 20.1871C7.96875 17.0934 8.34375 12.4059 14.3438 8.46837M26.8125 5.84337C29.4375 4.99962 33.075 4.88712 34.5 10.4371C36.2812 17.3746 36.8438 36.3121 38.625 38.5621C40.05 40.3621 42.0938 40.1247 42.9375 39.7809" stroke="black" stroke-width="0.5625" stroke-linecap="round" stroke-linejoin="round"/>
<path d="M26.4375 6.68706C28.5 6.12456 32.1562 5.84331 33.375 10.6246C34.5467 15.2211 33.2812 30.0308 33.8438 34.1558C34.4062 38.2808 37.3125 41.1871 40.7812 39.7808" stroke="black" stroke-width="0.5625" stroke-linecap="round" stroke-linejoin="round"/>
<path d="M27.5625 7.81194C30.0624 7.06194 34.95 8.48694 35.25 20.5619C35.625 35.6557 35.5312 39.4994 41.0625 40.8119" stroke="black" stroke-width="0.5625" stroke-linecap="round" stroke-linejoin="round"/>
<path d="M27.5625 8.56201C31.0312 8.84326 32.8875 12.0683 33.1875 16.3433C33.5625 21.687 29.7188 34.2495 33.1875 39.2183C35.9625 43.1933 38.9687 43.437 40.125 43.062" stroke="black" stroke-width="0.5625" stroke-linecap="round" stroke-linejoin="round"/>
<path d="M16.9326 19.8123C17.3387 19.2187 18.6201 18.2373 20.4951 19.0623M27.3876 18.9913C27.9107 18.4974 29.3711 17.8108 31.0281 19.0151" stroke="black" stroke-width="0.5625" stroke-linecap="round" stroke-linejoin="round"/>
<path d="M18.5263 18.9685C18.3388 19.0623 18.0201 19.3623 18.2451 19.8123C18.5263 20.3748 19.4638 19.906 19.3701 19.531C19.2951 19.231 18.9637 19.156 18.8076 19.156M29.1242 18.5052C28.9209 18.5572 28.5457 18.7825 28.6701 19.2702C28.8253 19.8796 29.841 19.6205 29.8292 19.2342C29.8196 18.925 29.5118 18.7814 29.3591 18.7482M16.125 17.2874C17.1369 16.9733 19.5165 16.6175 20.94 17.7061M26.8547 17.8118C27.4828 16.8143 29.5239 15.7182 30.9894 16.3987" stroke="black" stroke-width="0.5625" stroke-linecap="round" stroke-linejoin="round"/>
</g>
</g>
</g>
<defs>
<clipPath id="clip0_1020_4217">
<rect width="48" height="48" fill="white"/>
</clipPath>
<clipPath id="clip1_1020_4217">
<rect width="48" height="48" fill="white"/>
</clipPath>
</defs>
</svg>
