<svg width="48" height="48" viewBox="0 0 48 48" fill="none" xmlns="http://www.w3.org/2000/svg">
<g clip-path="url(#clip0_1020_4325)">
<mask id="mask0_1020_4325" style="mask-type:luminance" maskUnits="userSpaceOnUse" x="0" y="0" width="48" height="48">
<path d="M48 0H0V48H48V0Z" fill="white"/>
</mask>
<g mask="url(#mask0_1020_4325)">
<path d="M35.1409 18.0439C35.5605 18.0439 36.6899 18.5448 36.3302 20.6251C36.1724 21.5382 35.9781 21.7324 35.6425 22.3563C35.3586 22.8837 35.1297 23.2638 34.615 23.0166M13.387 18.3381C12.672 18.3381 11.7081 18.9419 12.0842 20.9251C12.4881 23.0534 13.1267 23.6208 13.5524 23.4936" stroke="black" stroke-width="0.5625" stroke-linecap="round" stroke-linejoin="round"/>
<path d="M15.5926 12.8257C14.2454 14.7784 13.3812 16.4846 13.8113 23.4375C14.4138 33.1686 17.8227 37.398 19.8496 39.4052C22.3208 41.8519 27.2178 42.8061 30.2958 39.4052C33.5459 35.814 34.0189 31.5831 34.4365 24.5625C34.7136 19.9011 36.19 14.6595 33.4053 12" stroke="black" stroke-width="0.5625" stroke-linecap="round" stroke-linejoin="round"/>
<path d="M24.9893 26.8125C24.2434 26.9726 23.647 28.0802 24.2436 28.677C24.9893 29.4227 26.5555 29.5719 26.7046 28.677C26.824 27.9609 26.4644 27.5788 26.1908 27.4297" stroke="black" stroke-width="0.5625" stroke-linecap="round" stroke-linejoin="round"/>
<path d="M25.3186 36.9214C23.9592 36.9214 22.6909 36.7166 22.1251 36.5625C22.3291 37.0476 22.7592 38.8074 25.3186 38.8074C27.8779 38.8074 28.4057 37.083 28.7359 36.5625C27.6302 36.9043 26.6779 36.9214 25.3186 36.9214Z" stroke="black" stroke-width="0.5625" stroke-linecap="round" stroke-linejoin="round"/>
<path d="M16.3662 12.5074C15.3248 11.6559 15.4738 11.8037 14.5013 11.5101M16.9607 10.1989C16.4432 9.9795 16.0783 9.56662 15.7135 9.15394M35.8062 12.8447C35.8062 12.8447 34.6573 12.7815 33.5661 13.2079M34.2021 10.0577C34.2021 10.0577 33.2057 10.6331 32.5253 11.5867M32.2581 7.98375C32.2581 7.98375 31.4173 8.76881 30.9694 9.85125M29.8375 6.66113C29.8375 6.66113 29.1743 7.60125 28.9564 8.75231M26.9678 6.22031C26.9678 6.22031 26.4698 7.25756 26.4462 8.42888M23.5198 6C23.5198 6 23.2669 7.12237 23.5062 8.26912M20.3421 6.34762C20.3421 6.34762 20.7977 7.40419 21.6657 8.19075M18 7.54275C18 7.54275 18.5738 8.34431 19.3825 9.21994" stroke="#9747FF" stroke-width="0.5625" stroke-linecap="round" stroke-linejoin="round"/>
<path d="M18.0302 18.8634C18.3462 19.0213 19.1785 19.1895 20.1426 19.1001C20.9849 19.0221 21.349 18.8173 21.5927 18.5625M27.7802 18.375C28.1854 18.7282 28.8927 18.7978 29.3361 18.8143C29.7796 18.8312 30.2811 18.8143 30.6796 18.7281M14.4376 19.0249L17.0033 20.4302M22.7311 21.1483C23.6952 20.5301 26.0352 20.5288 26.5662 20.8042M31.8526 20.3694C32.3296 20.1214 33.8365 18.9103 34.3133 18.567M17.0905 20.541C17.0267 21.2351 16.7712 23.4797 17.0901 23.8538C17.578 24.4256 22.297 23.6781 22.6182 23.5644C22.9214 23.457 22.9913 21.9193 22.5115 20.6867C22.1086 19.6513 18.6265 20.0916 17.2024 20.346" stroke="black" stroke-width="0.5625" stroke-linecap="round" stroke-linejoin="round"/>
<path d="M17.3498 21.5395L17.8692 20.5395C17.7209 21.1429 17.3054 22.6097 17.3498 22.788C17.4055 23.011 18.4124 20.4143 18.5239 20.4282C18.6353 20.442 17.6854 23.4222 17.6854 23.6031C17.6854 23.7842 18.8024 20.4282 18.9694 20.4282C19.1365 20.4282 18.1831 23.3518 18.2944 23.5189C18.4058 23.686 19.3176 20.5118 19.4569 20.3445C19.5961 20.1777 18.6631 23.7563 18.8162 23.7424C18.9694 23.7285 19.9722 19.8154 20.1113 20.1775C20.2506 20.5395 19.2062 24.1463 19.5683 23.8399C19.9302 23.5335 20.5705 19.899 20.8351 20.1775C21.0994 20.4559 20.1531 23.9374 20.3899 23.8399C20.6266 23.7424 21.2393 20.5395 21.3507 20.5395C21.4621 20.5395 21.1836 23.7424 21.2672 23.7424C21.3507 23.7424 21.8785 21.1228 21.9482 20.8999C22.0178 20.6772 22.1447 20.8155 22.1309 21.5395C22.1196 22.1188 21.9031 23.2272 21.8382 23.6031L22.3951 22.1828M26.9594 21.7433L27.4887 20.4482C27.34 21.0516 27.0542 22.3032 27.0987 22.4813C27.1544 22.704 28.0317 20.3228 28.1431 20.3368C28.2546 20.3507 27.4887 22.8015 27.4887 22.9825C27.4887 23.1636 28.4217 20.3368 28.5887 20.3368C28.7558 20.3368 27.9203 23.122 28.0319 23.289C28.1432 23.4561 28.9369 20.4203 29.0762 20.2534C29.2154 20.0862 28.2824 23.665 28.4356 23.6509C28.5887 23.637 29.5913 19.7241 29.7306 20.0862C29.8699 20.448 28.7729 23.9575 29.1349 23.6511C29.497 23.3447 30.1898 19.8077 30.4544 20.0862C30.7187 20.3646 29.7724 23.8461 30.0092 23.7486C30.2459 23.6511 30.8586 20.4482 30.97 20.4482C31.0814 20.4482 30.8029 23.6511 30.8866 23.6511C30.97 23.6511 31.3877 21.2698 31.4575 21.0469C31.5269 20.8242 31.6802 20.9355 31.6664 21.6597C31.6551 22.239 31.5224 23.1358 31.4575 23.5118L32.0144 22.0915" stroke="black" stroke-width="0.5625" stroke-linecap="round" stroke-linejoin="round"/>
<path d="M26.9035 20.2101C28.0263 19.7087 31.0636 20.0413 31.6323 20.2101C32.3429 20.421 32.3058 22.9618 32.2413 23.5946C32.1766 24.2276 28.1039 23.6299 27.2318 23.5946C26.5341 23.5665 26.6686 21.208 26.8302 20.2939" stroke="black" stroke-width="0.5625" stroke-linecap="round" stroke-linejoin="round"/>
</g>
</g>
<defs>
<clipPath id="clip0_1020_4325">
<rect width="48" height="48" fill="white"/>
</clipPath>
</defs>
</svg>
