<svg width="48" height="48" viewBox="0 0 48 48" fill="none" xmlns="http://www.w3.org/2000/svg">
<g clip-path="url(#clip0_1020_4136)">
<mask id="mask0_1020_4136" style="mask-type:luminance" maskUnits="userSpaceOnUse" x="0" y="0" width="48" height="48">
<path d="M48 0H0V48H48V0Z" fill="white"/>
</mask>
<g mask="url(#mask0_1020_4136)">
<path d="M34.7777 20.6211C35.1973 20.6211 36.4601 20.7621 36.1005 22.8422C35.9426 23.7553 35.7917 24.2533 35.4562 24.877C35.1724 25.4046 34.7664 25.8409 34.2517 25.5938M13.3627 21.2203C12.6478 21.2203 11.5106 22.2156 11.8869 24.1988C12.2906 26.3271 13.1025 26.5032 13.5279 26.3758" stroke="black" stroke-width="0.5625" stroke-linecap="round" stroke-linejoin="round"/>
<path d="M15.1031 18.058C14.3287 18.9764 14.0233 18.9764 13.2772 22.8764C12.5313 26.7764 20.5372 40.0011 23.9966 40.0011C26.6171 40.0011 28.529 37.6729 30.3425 34.6504C31.5973 32.5591 35.2181 23.1623 34.724 20.9119C34.2302 18.6619 34.0601 17.8056 33.0502 17.125" stroke="black" stroke-width="0.5625" stroke-linecap="round" stroke-linejoin="round"/>
<path d="M25.6542 24.0625C26.1525 25.5769 27.0683 28.798 26.745 29.5664C26.341 30.5268 25.7162 29.1528 25.7162 30.2239C25.5208 30.7501 25.0078 30.8221 24.7654 29.9358C24.523 29.0493 23.7874 30.5935 23.5448 30.2239C22.8827 29.9358 23.4201 28.8989 23.7838 28.5664" stroke="black" stroke-width="0.5625" stroke-linecap="round" stroke-linejoin="round"/>
<path d="M21.1875 34.867C22.1792 35.3245 23.7176 36.3586 25.4348 36.3064C27.5211 36.2432 28.1736 35.1569 28.4578 34.5625" stroke="black" stroke-width="0.5625" stroke-linecap="round" stroke-linejoin="round"/>
<path d="M24.6127 34.8078C24.0465 34.4579 23.001 35.1451 22.7604 35.5958C23.0447 36.6293 24.1286 37.3154 25.3676 37.3154C26.7307 37.3154 27.4796 36.1401 27.6051 35.725L27.6019 35.7186C27.4849 35.498 27.2775 35.1063 26.7266 34.8078C26.0314 34.4311 25.5688 35.9453 25.4394 35.9453C25.3102 35.9453 25.3309 35.2516 24.6126 34.8078H24.6127Z" stroke="black" stroke-width="0.5625" stroke-linecap="round" stroke-linejoin="round"/>
<path d="M14.9535 18.0473L9.1875 13.2734C10.3054 11.3119 15.8786 7 19.1931 7C23.3361 7 22.6988 9.69062 24.2479 9.69062C26.6319 9.69062 26.3511 9.11969 27.9292 7.38906C29.1919 6.00456 36.0504 8.6725 40.3249 10.6339L32.9717 17.0689C31.788 16.4344 27.2646 15.5232 23.9837 15.5232C20.7999 15.5232 16.4002 17.0667 14.9535 18.0473Z" stroke="#0FA958" stroke-width="0.5625" stroke-linecap="round" stroke-linejoin="round"/>
<path d="M29.6066 9.43669C29.4307 11.0276 29.0488 15.0116 29.0488 15.6669C29.0488 16.3937 28.1216 10.6884 27.974 10.3288L27.6988 15.3872L26.9694 10.8135L26.595 15.3872L25.7137 10.89L25.5952 14.8129L24.3769 10.8135L23.9179 14.8129L23.0799 10.8135L22.7602 14.8129L21.6795 10.4693L22.1059 15.063L19.442 9.16895L21.0274 15.3872L20.2429 13.9318L17.811 9.43669L19.442 15.8704L16.599 9.98513L18.3043 16.2878L15.0712 10.8135L16.599 15.8704L13.8634 11.7313L16.3147 16.8945L13.5435 12.7181L15.4976 17.4079L12.3356 12.7181L13.5435 16.4738L11.696 13.7128M30.1592 15.6669L31.1657 9.8012V16.1295L32.6934 10.4693L32.3735 15.3872L33.8407 10.89L32.6934 16.4738L34.7895 11.1904L34.5052 14.8129L35.9619 11.5457V13.2866L36.9922 12.1496" stroke="#0FA958" stroke-width="1.125" stroke-linecap="round" stroke-linejoin="round"/>
<path d="M10.5388 14.024C12.435 12.2067 16.7843 8.54899 19.0121 8.45393C21.2402 8.35924 19.9603 9.46136 22.5675 10.7058L26.7746 10.2909C28.1968 9.75762 28.647 8.24074 30.2113 8.80962C31.7758 9.3783 35.1051 10.9859 38.2654 12.0526" stroke="#0FA958" stroke-width="0.5625" stroke-linecap="round" stroke-linejoin="round"/>
<path d="M19.1691 21.9194C19.6434 22.2631 20.6122 23.0387 20.6906 23.392C20.7694 23.7454 19.0547 24.3899 18.1875 24.6681M30.2618 21.625C29.5909 21.8704 28.2887 22.4399 28.4458 22.7538C28.6421 23.1466 29.7311 23.4344 30.2618 23.8337" stroke="black" stroke-width="0.5625" stroke-linecap="round" stroke-linejoin="round"/>
</g>
</g>
<defs>
<clipPath id="clip0_1020_4136">
<rect width="48" height="48" fill="white"/>
</clipPath>
</defs>
</svg>
