<svg width="285" height="191" viewBox="0 0 285 191" fill="none" xmlns="http://www.w3.org/2000/svg">
<g opacity="0.75">
<path d="M54.7388 36.7439C56.3212 15.539 81.6405 14.5895 81.6405 14.5895C49.3585 3.19586 42.0792 35.4779 43.9781 38.0098C46.51 40.8582 54.4223 41.8077 54.7388 36.7439Z" fill="#947151"/>
<path d="M172.79 77.887C169.308 70.2913 179.12 43.7061 179.12 43.7061C179.12 43.7061 203.173 70.9242 179.753 83.9003C178.487 84.5333 173.423 79.153 172.79 77.887ZM27.8372 114.283C27.8372 114.283 18.9754 99.7249 31.635 81.6849L13.5951 89.9137C5.04984 106.688 27.8372 114.283 27.8372 114.283Z" fill="#C2ACA1"/>
<path d="M182.284 147.199C177.537 134.223 178.803 128.842 178.803 128.842C190.83 107.004 182.601 75.9883 170.574 74.0894C127.532 66.4936 71.8293 79.1532 71.8293 64.5947C71.8293 34.5281 46.5101 15.8552 26.5712 34.2116C12.3291 47.5042 23.7228 51.9351 1.88491 79.1533C-3.17893 85.1666 2.5179 89.9139 12.3291 91.8129C15.494 92.4459 16.4435 92.1294 24.3557 88.015C31.9515 83.9006 42.7122 88.9645 45.5606 74.7224C45.5606 74.7224 43.9782 110.169 65.4995 134.539C65.4995 134.539 69.9304 147.199 61.3851 181.696H71.8293L81.324 155.427C81.324 155.427 79.4251 136.755 85.4384 138.653C104.111 145.3 150.319 133.906 150.319 133.906C154.75 142.768 168.992 151.313 168.992 151.313C168.992 151.313 164.561 161.757 165.194 181.696H176.271C176.904 174.1 182.284 147.199 182.284 147.199Z" fill="#F1E7DC"/>
<path d="M59.1694 189.924H69.2971L71.1961 182.012H60.7519C60.1189 186.76 59.1694 189.924 59.1694 189.924ZM164.877 182.012C164.244 186.76 164.561 189.924 164.561 189.924H175.321C175.321 189.924 175.321 186.76 175.954 182.012H164.877Z" fill="#947151"/>
<path d="M32.2681 58.2652C34.89 58.2652 37.0155 56.1398 37.0155 53.5179C37.0155 50.896 34.89 48.7705 32.2681 48.7705C29.6462 48.7705 27.5208 50.896 27.5208 53.5179C27.5208 56.1398 29.6462 58.2652 32.2681 58.2652Z" fill="#3E4347"/>
<path d="M7.89844 81.3687C7.58195 82.0017 5.99949 82.9512 5.36651 82.3182C4.73353 82.0017 5.05002 80.4193 5.683 79.4698C5.99949 78.8368 6.94897 78.5203 7.58195 79.1533C8.21493 79.7863 8.21493 80.7357 7.89844 81.3687ZM24.0395 73.7729C24.9889 77.5708 24.0395 81.6852 21.824 85.1666C20.8745 86.7491 19.2921 88.3315 17.7096 89.5975C16.1272 90.8634 14.2282 91.4964 12.3293 92.1294C15.4942 89.914 18.3426 87.6985 20.2416 84.5336C21.191 82.9512 21.824 81.3687 22.457 79.4698C23.09 77.5708 23.723 75.6719 24.0395 73.7729Z" fill="#C2ACA1"/>
<path d="M56.0048 45.6055C75.6272 44.9725 73.4118 18.3873 70.2469 19.9698C65.183 22.5017 49.3585 29.781 49.3585 38.6427C49.3585 40.2252 47.4596 45.922 56.0048 45.6055Z" fill="#F1E7DC"/>
<path d="M53.7891 36.7434C55.3716 31.6796 66.7652 25.9827 68.6642 25.3498C70.5631 24.4003 70.5631 38.0094 57.9035 43.3897C56.6375 44.0227 55.3716 44.0227 54.7386 43.0732C54.1056 42.1238 56.954 40.2248 58.853 39.2753C61.0684 38.3259 58.5365 38.6424 56.954 38.9588C55.3716 39.5918 56.3211 38.3259 57.587 37.6929C58.853 36.7434 55.6881 37.6929 54.4221 38.9588C53.1561 40.2248 52.8397 40.2248 53.7891 36.7434Z" fill="#C2ACA1"/>
<path d="M47.7759 33.8952C42.0791 10.1584 69.6138 0.0307016 69.6138 0.0307016C29.736 -1.23526 33.2174 37.0601 36.3823 38.959C40.1802 41.1745 49.0419 39.592 47.7759 33.8952Z" fill="#947151"/>
</g>
<path d="M31.016 93L6.44 25.8H19.592L38.6 80.424L57.704 25.8H70.664L46.088 93H31.016ZM78.853 93V25.8H105.829C112.805 25.8 118.117 27.432 121.765 30.696C125.477 33.896 127.333 38.024 127.333 43.08C127.333 47.304 126.181 50.696 123.877 53.256C121.637 55.752 118.885 57.448 115.621 58.344C119.461 59.112 122.629 61.032 125.125 64.104C127.621 67.112 128.869 70.632 128.869 74.664C128.869 79.976 126.949 84.36 123.109 87.816C119.269 91.272 113.829 93 106.789 93H78.853ZM91.141 54.024H104.005C107.461 54.024 110.117 53.224 111.973 51.624C113.829 50.024 114.757 47.752 114.757 44.808C114.757 41.992 113.829 39.784 111.973 38.184C110.181 36.52 107.461 35.688 103.813 35.688H91.141V54.024ZM91.141 83.016H104.869C108.517 83.016 111.333 82.184 113.317 80.52C115.365 78.792 116.389 76.392 116.389 73.32C116.389 70.184 115.333 67.72 113.221 65.928C111.109 64.136 108.261 63.24 104.677 63.24H91.141V83.016ZM137.023 49.416L142.303 25.8H155.263L145.471 49.416H137.023ZM179.645 94.152C175.421 94.152 171.709 93.48 168.509 92.136C165.309 90.728 162.749 88.808 160.829 86.376C158.909 83.944 157.757 81.128 157.373 77.928H169.757C170.141 79.784 171.165 81.384 172.829 82.728C174.557 84.008 176.765 84.648 179.453 84.648C182.141 84.648 184.093 84.104 185.309 83.016C186.589 81.928 187.229 80.68 187.229 79.272C187.229 77.224 186.333 75.848 184.541 75.144C182.749 74.376 180.253 73.64 177.053 72.936C175.005 72.488 172.925 71.944 170.813 71.304C168.701 70.664 166.749 69.864 164.957 68.904C163.229 67.88 161.821 66.6 160.733 65.064C159.645 63.464 159.101 61.512 159.101 59.208C159.101 54.984 160.765 51.432 164.093 48.552C167.485 45.672 172.221 44.232 178.301 44.232C183.933 44.232 188.413 45.544 191.741 48.168C195.133 50.792 197.149 54.408 197.789 59.016H186.173C185.469 55.496 182.813 53.736 178.205 53.736C175.901 53.736 174.109 54.184 172.829 55.08C171.613 55.976 171.005 57.096 171.005 58.44C171.005 59.848 171.933 60.968 173.789 61.8C175.645 62.632 178.109 63.4 181.181 64.104C184.509 64.872 187.549 65.736 190.301 66.696C193.117 67.592 195.357 68.968 197.021 70.824C198.685 72.616 199.517 75.208 199.517 78.6C199.581 81.544 198.813 84.2 197.213 86.568C195.613 88.936 193.309 90.792 190.301 92.136C187.293 93.48 183.741 94.152 179.645 94.152ZM11.528 189V121.8H34.472C42.344 121.8 48.808 123.208 53.864 126.024C58.984 128.776 62.76 132.68 65.192 137.736C67.688 142.728 68.936 148.616 68.936 155.4C68.936 162.184 67.688 168.104 65.192 173.16C62.76 178.152 58.984 182.056 53.864 184.872C48.808 187.624 42.344 189 34.472 189H11.528ZM23.816 178.44H33.896C39.528 178.44 43.976 177.544 47.24 175.752C50.504 173.896 52.84 171.272 54.248 167.88C55.656 164.424 56.36 160.264 56.36 155.4C56.36 150.6 55.656 146.472 54.248 143.016C52.84 139.56 50.504 136.904 47.24 135.048C43.976 133.192 39.528 132.264 33.896 132.264H23.816V178.44ZM71.3455 189L95.9215 121.8H109.745L134.321 189H121.266L115.889 173.448H89.6815L84.2095 189H71.3455ZM93.0415 163.848H112.529L102.737 135.912L93.0415 163.848ZM170.822 190.152C164.102 190.152 158.214 188.68 153.158 185.736C148.166 182.792 144.23 178.728 141.35 173.544C138.534 168.296 137.126 162.248 137.126 155.4C137.126 148.552 138.534 142.536 141.35 137.352C144.23 132.104 148.166 128.008 153.158 125.064C158.214 122.12 164.102 120.648 170.822 120.648C177.478 120.648 183.334 122.12 188.39 125.064C193.446 128.008 197.382 132.104 200.198 137.352C203.014 142.536 204.422 148.552 204.422 155.4C204.422 162.248 203.014 168.296 200.198 173.544C197.382 178.728 193.446 182.792 188.39 185.736C183.334 188.68 177.478 190.152 170.822 190.152ZM170.822 179.112C177.222 179.112 182.31 177 186.086 172.776C189.926 168.552 191.846 162.76 191.846 155.4C191.846 148.04 189.926 142.248 186.086 138.024C182.31 133.8 177.222 131.688 170.822 131.688C164.422 131.688 159.302 133.8 155.462 138.024C151.622 142.248 149.702 148.04 149.702 155.4C149.702 162.76 151.622 168.552 155.462 172.776C159.302 177 164.422 179.112 170.822 179.112Z" fill="#D8FEE4"/>
</svg>
