<svg width="66" height="65" viewBox="0 0 66 65" fill="none" xmlns="http://www.w3.org/2000/svg">
<path fill-rule="evenodd" clip-rule="evenodd" d="M34.338 25.4508C19.7923 32.0089 10.5732 47.5694 12.9689 61.5593C13.5002 64.7616 12.469 65.3048 9.6598 63.2863C7.04362 61.4154 6.37556 53.9185 8.10016 46.0008C10.4335 35.3167 23.1357 23.1521 31.0184 21.6354C34.4801 20.9495 39.1301 23.2935 34.338 25.4508Z" fill="black"/>
<path fill-rule="evenodd" clip-rule="evenodd" d="M26.2246 6.56429C8.22967 18.1334 16.5548 18.1511 21.4794 15.3164L24.5306 13.5602C36.6543 30.7363 40.4368 37.8219 49.404 54.1073C40.4378 59.2682 38.6134 60.2471 41.8808 61.8221C43.6067 62.6456 44.1081 62.4639 55.1773 56.1281C65.807 50.0809 66.0057 49.931 65.4796 49.0225C64.2727 46.9384 62.1294 46.9964 57.7655 49.2588L54.3271 51.0242C51.4954 46.1345 39.0269 24.4186 36.1075 20.3633C28.2256 9.40264 28.4627 10.7981 33.6496 7.49194C42.4484 1.85735 36.4332 0.65262 33.7287 1.95992C32.2257 2.75379 29.9704 4.15885 26.2246 6.56429Z" fill="black"/>
</svg>
