<svg width="207" height="207" viewBox="0 0 300 300" fill="none" xmlns="http://www.w3.org/2000/svg">
<path d="M150 300C232.843 300 300 232.843 300 150C300 67.1573 232.843 0 150 0C67.1573 0 0 67.1573 0 150C0 232.843 67.1573 300 150 300Z" fill="#FFDD67"/>
<path d="M75 195C105.376 195 130 170.376 130 140C130 109.624 105.376 85 75 85C44.6243 85 20 109.624 20 140C20 170.376 44.6243 195 75 195Z" fill="white"/>
<path d="M225 195C255.376 195 280 170.376 280 140C280 109.624 255.376 85 225 85C194.624 85 170 109.624 170 140C170 170.376 194.624 195 225 195Z" fill="white"/>
<path d="M170 125C161 118.5 139 118.5 130 125C124.5 120 125.5 114.5 120 109.5C135.5 97.9998 162 95.9998 180 109.5C174.5 114.5 175.5 120 170 125Z" fill="#494949"/>
<path d="M225 75C189 75 160 104 160 140C160 176 189 205 225 205C261 205 290 176 290 140C290 104 261 75 225 75ZM225 190C197.5 190 175 167.5 175 140C175 112.5 197.5 90 225 90C252.5 90 275 112.5 275 140C275 167.5 252.5 190 225 190ZM75 75C39 75 10 104 10 140C10 176 39 205 75 205C111 205 140 176 140 140C140 104 111 75 75 75ZM75 190C47.5 190 25 167.5 25 140C25 112.5 47.5 90 75 90C102.5 90 125 112.5 125 140C125 167.5 102.5 190 75 190Z" fill="#494949"/>
<path d="M90 167.5C101.046 167.5 110 156.307 110 142.5C110 128.693 101.046 117.5 90 117.5C78.9543 117.5 70 128.693 70 142.5C70 156.307 78.9543 167.5 90 167.5Z" fill="#664E27"/>
<path d="M210 167.5C221.046 167.5 230 156.307 230 142.5C230 128.693 221.046 117.5 210 117.5C198.954 117.5 190 128.693 190 142.5C190 156.307 198.954 167.5 210 167.5Z" fill="#664E27"/>
<path d="M123.502 246.499C152.502 253.999 183.502 248.499 208.002 231.499C214.002 226.999 202.502 211.499 196.502 215.499C180.502 226.999 154.502 234.499 128.002 227.499C121.502 225.999 116.002 244.499 123.502 246.499Z" fill="#664E27"/>
<path d="M255.999 68.5C239.999 55 218.499 49 197.499 53C194.499 53.5 191.999 43 195.499 42C219.499 37.5 244.499 44.5 262.999 60C265.999 62.5 257.999 70.5 255.999 68.5ZM102.499 52C81.4995 48.5 59.9995 54 43.9995 67.5C41.9995 69.5 33.9995 61.5 36.9995 59C55.4995 43 80.4995 36.5 104.499 41C107.999 42 105.499 52.5 102.499 52Z" fill="#917524"/>
</svg>
