<svg width="207" height="162" viewBox="0 0 415 325" fill="none" xmlns="http://www.w3.org/2000/svg">
<path d="M119.399 62.6887C122.851 26.5112 178.078 24.8913 178.078 24.8913C107.663 5.45265 91.7852 60.5288 95.9272 64.8485C101.45 69.7082 118.708 71.3281 119.399 62.6887Z" fill="#947151"/>
<path d="M376.896 132.883C369.303 119.923 390.703 74.5667 390.703 74.5667C390.703 74.5667 443.169 121.003 392.084 143.142C389.323 144.222 378.277 135.042 376.896 132.883ZM60.7202 194.978C60.7202 194.978 41.3907 170.14 69.0043 139.362L29.6549 153.401C11.0157 182.019 60.7202 194.978 60.7202 194.978Z" fill="#C2ACA1"/>
<path d="M397.606 251.135C387.251 228.996 390.012 219.817 390.012 219.817C416.245 182.56 398.296 129.643 372.063 126.404C278.177 113.445 156.677 135.043 156.677 110.205C156.677 58.9083 101.45 27.0506 57.9581 58.3684C26.8927 81.0468 51.745 88.6063 4.11145 135.043C-6.93401 145.302 5.49213 153.402 26.8927 156.642C33.7961 157.721 35.8671 157.181 53.1257 150.162C69.6939 143.142 93.1655 151.782 99.3785 127.484C99.3785 127.484 95.9268 187.959 142.87 229.536C142.87 229.536 152.535 251.135 133.896 309.991H156.677L177.387 265.174C177.387 265.174 173.245 233.316 186.362 236.556C227.092 247.895 327.881 228.457 327.881 228.457C337.546 243.575 368.612 258.154 368.612 258.154C368.612 258.154 358.947 275.973 360.328 309.991H384.489C385.87 297.032 397.606 251.135 397.606 251.135Z" fill="#F1E7DC"/>
<path d="M129.062 324.029H151.153L155.295 310.53H132.514C131.134 318.63 129.062 324.029 129.062 324.029ZM359.636 310.53C358.256 318.63 358.946 324.029 358.946 324.029H382.418C382.418 324.029 382.418 318.63 383.798 310.53H359.636Z" fill="#947151"/>
<path d="M70.3844 99.4057C76.1034 99.4057 80.7395 95.7794 80.7395 91.3062C80.7395 86.833 76.1034 83.2068 70.3844 83.2068C64.6654 83.2068 60.0293 86.833 60.0293 91.3062C60.0293 95.7794 64.6654 99.4057 70.3844 99.4057Z" fill="#3E4347"/>
<path d="M17.2275 138.822C16.5371 139.902 13.0854 141.522 11.7047 140.442C10.3241 139.902 11.0144 137.202 12.3951 135.583C13.0854 134.503 15.1564 133.963 16.5371 135.043C17.9178 136.123 17.9178 137.742 17.2275 138.822ZM52.4349 125.863C54.5059 132.343 52.4349 139.362 47.6025 145.302C45.5314 148.002 42.0797 150.702 38.628 152.861C35.1763 155.021 31.0343 156.101 26.8922 157.181C33.7957 153.401 40.0087 149.622 44.1508 144.222C46.2218 141.522 47.6025 138.822 48.9832 135.583C50.3638 132.343 51.7445 129.103 52.4349 125.863Z" fill="#C2ACA1"/>
<path d="M122.16 77.8069C164.961 76.727 160.129 31.3702 153.225 34.07C142.18 38.3897 107.663 50.8088 107.663 65.9278C107.663 68.6276 103.521 78.3469 122.16 77.8069Z" fill="#F1E7DC"/>
<path d="M117.327 62.6877C120.779 54.0483 145.631 44.329 149.773 43.2491C153.915 41.6292 153.915 64.8476 126.302 74.0269C123.54 75.1069 120.779 75.1069 119.398 73.487C118.018 71.8671 124.231 68.6273 128.373 67.0074C133.205 65.3875 127.682 65.9275 124.231 66.4675C120.779 67.5474 122.85 65.3875 125.611 64.3076C128.373 62.6877 121.469 64.3076 118.708 66.4675C115.947 68.6273 115.256 68.6273 117.327 62.6877Z" fill="#C2ACA1"/>
<path d="M104.21 57.8284C91.7843 17.3312 151.844 0.0523798 151.844 0.0523798C64.861 -2.10747 72.4548 63.228 79.3582 66.4678C87.6423 70.2475 106.972 67.5477 104.21 57.8284Z" fill="#947151"/>
</svg>
